<?xml version="1.0" encoding="utf-8"?>
<!-- Generator: Adobe Illustrator 24.2.3, SVG Export Plug-In . SVG Version: 6.00 Build 0)  -->
<svg version="1.1" xmlns="http://www.w3.org/2000/svg" xmlns:xlink="http://www.w3.org/1999/xlink" x="0px" y="0px"
	 viewBox="0 0 24 23" style="enable-background:new 0 0 24 23;" xml:space="preserve">
<style type="text/css">
	.st0{display:none;}
	.st1{display:inline;fill:none;stroke:#6C60FE;}
	.st2{display:inline;fill:#FD3358;}
	.st3{display:inline;fill:none;stroke:#1E1D85;}
	.st4{fill:#0C2340;}
	.st5{fill:#B38B09;}
</style>
<g id="Layer_1" class="st0">
	<path class="st1" d="M16.6,3.4V5l1.2,0.7V3.4H16.6z"/>
	<path class="st2" d="M14.8,11.6c0.8,0.7,0.8,1.9,0.1,2.7L12,17.1l-2.9-2.8c-0.7-0.8-0.7-1.9,0.1-2.7c0.8-0.7,2-0.8,2.8-0.1
		C12.8,10.9,14.1,10.9,14.8,11.6z M9.7,12.1c-0.5,0.5-0.5,1.3-0.1,1.8l2.4,2.3l2.4-2.3c0.5-0.5,0.4-1.3-0.1-1.8
		c-0.5-0.5-1.3-0.5-1.9-0.1l-1.4,1.4l-0.5-0.5l1-0.9l0,0C11,11.6,10.2,11.6,9.7,12.1z"/>
	<path class="st1" d="M13.6,8.6h6.9l-8.4-7.2L3.6,8.6l6.8-0.1"/>
	<path class="st1" d="M18.7,8.6l0,6.4l0,0.1"/>
	<path class="st1" d="M5.4,8.6l0,6.4"/>
	<path class="st3" d="M18.1,22.6l2.6-2.8c0.5-0.5,1.6-1.6,1.9-2.7c0.3-1.3,0.4-3,0.4-4.2c0-1.2-0.1-1.9-0.8-1.9
		c-0.6,0-1-0.2-1.2,0.4c-0.2,0.5-0.2,2.8-0.2,4c0,0.2,0,0.7-0.5,1.2c-0.5,0.5-2.3,2.4-3.1,3.3"/>
	<path class="st3" d="M20.3,16.5c0-0.1,0.1-0.3-0.1-0.7c-0.3-0.5-0.5-0.7-0.9-0.7c-0.4,0-0.6,0-0.9,0.2c-0.2,0.2-1.3,1.4-1.9,1.9
		l-0.3,0.3c-0.2,0-0.8,0.1-1.3,0.3c-0.6,0.2-1.2,0.5-1.7,1.2c-0.5,0.6-0.8,1.4-1,2c-0.1,0.4-0.1,1.3-0.1,1.7"/>
	<path class="st3" d="M12.1,22.6V21c-0.2-0.2-0.7-0.9-1.4-1.7c-0.8-0.8-2.2-1.6-2.9-1.9l-2.2-2.2C5.4,15.1,5,15,4.7,15.1
		c-0.3,0.1-0.6,0.4-0.9,0.8c-0.1,0.1-0.2,0.5,0.3,1.2c0.2,0.3,2,2,2.8,2.8"/>
	<path class="st3" d="M6,22.5l-2.9-2.9c-0.4-0.5-1.3-1.6-1.6-2.5C1.1,16.1,0.9,13,1,12.4c0.1-0.6,0.3-1.1,0.8-1.2
		c0.4-0.1,1.1-0.1,1.3,0.2s0.2,1.6,0.2,2.2c0,0.4,0,1.3,0.3,2l0.2,0.9"/>
</g>
<g id="Layer_2">
	<g>
		<path class="st4" d="M16.3,13.7c0,0.2,0,0.3,0,0.5c0,0,0,0.1,0,0.1c-0.5-0.3-1-0.6-1.5-0.8c-0.1,0-0.1,0-0.2-0.1
			c-0.4-0.2-0.9-0.3-1.3-0.4c-0.1,0-0.1,0-0.2,0c-0.8-0.1-1.6-0.1-2.3,0c0-0.1-0.1-0.1-0.1-0.2c-0.2-0.4-0.3-0.9-0.3-1.3
			c0-0.1,0-0.1,0-0.2c1.1-0.2,2.2-0.2,3.2,0c0.1,0,0.1,0,0.2,0c0.5,0.1,0.9,0.2,1.3,0.4l0,0c0,0,0.1,0,0.1,0.1
			c0.3,0.1,0.5,0.2,0.7,0.3c0.1,0.1,0.1,0.3,0.1,0.4C16.3,12.9,16.3,13.3,16.3,13.7z"/>
		<path class="st4" d="M14.8,13.5c-0.2,0.5-0.4,1-0.7,1.5c-0.3,0.5-0.6,0.9-0.9,1.3c0,0-0.1,0.1-0.1,0.1c-0.3,0.4-0.6,0.7-1,1l0,0
			c0,0-0.1,0.1-0.1,0.1c-0.2,0.2-0.4,0.3-0.7,0.5c-0.1,0-0.3,0-0.4-0.1c-0.5-0.1-1.1-0.4-1.5-0.7c0,0-0.1,0-0.1-0.1
			c0.5-0.2,1-0.5,1.4-0.9c0,0,0.1-0.1,0.1-0.1c0.4-0.3,0.7-0.6,1-1c0-0.1,0.1-0.1,0.1-0.2c0.2-0.3,0.5-0.6,0.7-1
			c0.2-0.3,0.4-0.7,0.5-1.1c0.1,0,0.1,0,0.2,0c0.5,0.1,0.9,0.2,1.3,0.4C14.7,13.5,14.8,13.5,14.8,13.5z"/>
		<path class="st4" d="M12,15.1c0,0.1-0.1,0.1-0.1,0.2c-0.3,0.3-0.6,0.7-1,1c0,0-0.1,0.1-0.1,0.1c-0.3-0.4-0.7-0.9-0.9-1.3
			c-0.3-0.5-0.5-1-0.7-1.5c0-0.1,0-0.1-0.1-0.2c-0.2-0.4-0.3-0.9-0.4-1.4l0,0c0,0,0-0.1,0-0.1c0-0.3-0.1-0.5-0.1-0.8
			c0.1-0.1,0.2-0.2,0.3-0.3c0.4-0.4,0.9-0.7,1.4-1c0,0,0.1,0,0.1,0c0,0.6,0,1.1,0.1,1.7c0,0.1,0,0.1,0,0.2c0.1,0.5,0.2,0.9,0.3,1.3
			c0,0.1,0,0.1,0.1,0.2c0.1,0.4,0.3,0.7,0.5,1.1C11.5,14.5,11.7,14.8,12,15.1z"/>
		<path class="st5" d="M14.6,19.1c-0.1,0-0.2,0.1-0.3,0.1c-0.7,0.3-1.5,0.5-2.3,0.5c-0.8,0-1.6-0.2-2.3-0.5c-0.1,0-0.2-0.1-0.3-0.1
			h0c0,0,0,0-0.1,0c-0.3-0.1-0.5-0.3-0.8-0.5c-0.2-0.1-0.4-0.3-0.6-0.5c0,0-0.1-0.1-0.1-0.1c0,0-0.1-0.1-0.1-0.1
			c-0.1-0.1-0.1-0.1-0.1-0.2c-0.5-0.5-0.9-1.1-1.1-1.7c-0.1-0.2-0.1-0.4-0.2-0.6c0.1-0.1,0.1-0.1,0.2-0.2c0.4-0.4,0.7-0.7,1.2-1
			c0.1,1.1,0.8,2.2,1.7,2.9c0,0,0.1,0,0.1,0.1c0.5,0.3,1,0.6,1.5,0.7c0.1,0,0.3,0.1,0.4,0.1c0.4,0.1,0.9,0.1,1.3,0
			c0.1,0.1,0.2,0.2,0.4,0.2C13.4,18.6,14.1,18.9,14.6,19.1C14.5,19.1,14.5,19.1,14.6,19.1z"/>
		<path class="st5" d="M13.6,9.7c-0.5-0.2-1.1-0.3-1.7-0.3s-1.1,0.1-1.7,0.3c0,0-0.1,0-0.1,0c-0.5,0.2-1,0.6-1.4,1
			c-0.1,0.1-0.2,0.2-0.3,0.3c-0.3,0.3-0.5,0.7-0.7,1.1c-0.7,0.3-1.4,0.8-1.8,1.1c0,0-0.1,0-0.1,0.1c0-0.7,0.2-1.3,0.5-1.9
			c0.3-0.7,0.7-1.3,1.3-1.9C8,9.3,8.3,9,8.6,8.8c0,0,0,0,0.1,0c0.3-0.2,0.5-0.3,0.8-0.4c0.1,0,0.1,0,0.2-0.1
			c0.2-0.1,0.4-0.1,0.5-0.2c0,0,0.1,0,0.1,0c0.1,0,0.2-0.1,0.3-0.1c0.9-0.2,1.8-0.2,2.7,0c0,0.1,0.1,0.2,0.1,0.3
			C13.5,8.7,13.6,9.2,13.6,9.7z"/>
		<path class="st5" d="M17.9,13.7c0,0.2,0,0.4,0,0.6c0,0.2-0.1,0.5-0.1,0.7c0,0,0,0.1,0,0.1c0,0.1-0.1,0.2-0.1,0.3
			c-0.1,0.2-0.1,0.4-0.2,0.6c-0.3,0.6-0.6,1.2-1.1,1.7c-0.1,0-0.2,0-0.3,0c-0.5-0.1-1-0.3-1.4-0.5c0.9-0.7,1.5-1.8,1.7-2.9
			c0,0,0-0.1,0-0.1c0-0.2,0-0.3,0-0.5c0-0.4-0.1-0.8-0.2-1.2c0-0.1-0.1-0.3-0.1-0.4c-0.2-0.4-0.4-0.8-0.6-1.1c0-0.1,0-0.3,0-0.4
			c0-0.5,0-1.2-0.1-1.7c0,0,0,0,0-0.1c0.3,0.2,0.6,0.5,0.9,0.7c0.5,0.5,1,1.2,1.3,1.9c0.3,0.6,0.4,1.2,0.5,1.9c0,0,0,0.1,0,0.1
			C17.9,13.5,17.9,13.6,17.9,13.7z"/>
		<path class="st4" d="M15.4,10.6c0,0.1,0,0.3,0,0.4c0,0.3-0.1,0.5-0.1,0.8c0,0-0.1,0-0.1-0.1l0,0c-0.4-0.2-0.9-0.3-1.3-0.4
			c-0.1,0-0.1,0-0.2,0c0.1-0.5,0.1-1.1,0.1-1.7c0-0.5-0.1-1-0.3-1.5c0-0.1-0.1-0.2-0.1-0.3C13,7.3,12.4,7.1,12,7.1h0
			c-0.5,0-1,0.2-1.3,0.8C10.5,8,10.4,8,10.3,8c0,0-0.1,0-0.1,0C10,8.1,9.8,8.2,9.6,8.3c-0.1,0-0.1,0-0.2,0.1
			C9.2,8.5,8.9,8.6,8.7,8.8c0,0,0,0-0.1,0c0.2-1,2.4-6.9,2.8-7.8l0.1-0.2l2.9,1.3l-0.2,0.6C14.1,3.1,14,3.4,14,3.6
			c-0.1,0.4-0.1,0.6,0,0.7c0.2,0.4,0.4,0.9,0.5,1.3c0.2,0.8,0.6,2.4,0.8,3.3c0,0,0,0.1,0,0.1C15.4,9.3,15.4,10.1,15.4,10.6z"/>
		<path class="st4" d="M9.4,19.1c-1,0.3-7.2,1.4-8.2,1.5l-0.2,0l-0.3-3.2l0.6-0.1c0.3-0.1,0.7-0.2,0.9-0.2c0.4-0.1,0.5-0.2,0.6-0.3
			c0.2-0.4,0.5-0.8,0.8-1.1C4.2,15,5.3,13.9,6,13.3c0,0,0.1,0,0.1-0.1c0.4-0.3,1.1-0.8,1.8-1.1c0.3-0.1,0.5-0.2,0.8-0.3
			c0,0,0,0.1,0,0.1l0,0c0.1,0.5,0.2,0.9,0.4,1.4c0,0.1,0,0.1,0.1,0.2c-0.5,0.2-1,0.5-1.5,0.8c-0.4,0.3-0.8,0.6-1.2,1
			c-0.1,0.1-0.1,0.1-0.2,0.2c-0.4,0.6-0.3,1.2,0,1.6c0.2,0.4,0.7,0.8,1.4,0.7c0,0.1,0.1,0.1,0.1,0.2c0,0,0.1,0.1,0.1,0.1
			c0,0,0.1,0.1,0.1,0.1c0.2,0.2,0.4,0.3,0.6,0.5C8.8,18.8,9,18.9,9.4,19.1C9.3,19.1,9.3,19.1,9.4,19.1z"/>
		<path class="st4" d="M23.4,19.8l-2.6,1.9l-0.4-0.4c-0.2-0.2-0.5-0.5-0.7-0.7c-0.3-0.3-0.5-0.4-0.6-0.3c-0.5,0-1.1-0.1-1.4-0.2
			c-0.9-0.2-2.4-0.7-3.2-0.9c0,0,0,0-0.1,0c-0.4-0.2-1.1-0.5-1.5-0.8c-0.1-0.1-0.2-0.2-0.4-0.2c-0.2-0.2-0.4-0.3-0.7-0.5
			c0,0,0.1-0.1,0.1-0.1l0,0c0.4-0.3,0.7-0.6,1-1c0,0,0.1-0.1,0.1-0.1c0.4,0.3,0.9,0.6,1.4,0.9c0.5,0.2,0.9,0.4,1.4,0.5
			c0.1,0,0.2,0,0.3,0c0.7,0.1,1.2-0.3,1.4-0.8c0.2-0.4,0.3-1-0.1-1.6c0-0.1,0.1-0.2,0.1-0.3c0,0,0-0.1,0-0.1
			c0.1-0.2,0.1-0.5,0.1-0.7c0-0.2,0-0.4,0-0.6c0-0.1,0-0.2,0-0.4c0,0,0-0.1,0-0.1c0.8,0.7,4.8,5.6,5.4,6.3L23.4,19.8z"/>
	</g>
</g>
</svg>
